<mxfile host="app.diagrams.net" agent="Mozilla/5.0 (Windows NT 10.0; Win64; x64; rv:136.0) Gecko/20100101 Firefox/136.0" version="26.1.1">
  <diagram name="Page-1" id="Jzqe40mMPqn2M9oal14Z">
    <mxGraphModel dx="1050" dy="558" grid="1" gridSize="10" guides="1" tooltips="1" connect="1" arrows="1" fold="1" page="1" pageScale="1" pageWidth="827" pageHeight="1169" math="0" shadow="0">
      <root>
        <mxCell id="0" />
        <mxCell id="1" parent="0" />
        <mxCell id="eHSs0Bau5R2WuIE67x_f-1" value="" style="rounded=0;whiteSpace=wrap;html=1;" vertex="1" parent="1">
          <mxGeometry x="220" width="500" height="540" as="geometry" />
        </mxCell>
        <mxCell id="eHSs0Bau5R2WuIE67x_f-8" style="edgeStyle=orthogonalEdgeStyle;rounded=0;orthogonalLoop=1;jettySize=auto;html=1;entryX=0;entryY=0.5;entryDx=0;entryDy=0;endArrow=none;startFill=0;" edge="1" parent="1" source="eHSs0Bau5R2WuIE67x_f-2" target="eHSs0Bau5R2WuIE67x_f-4">
          <mxGeometry relative="1" as="geometry">
            <Array as="points">
              <mxPoint x="240" y="110" />
              <mxPoint x="240" y="105" />
            </Array>
          </mxGeometry>
        </mxCell>
        <mxCell id="eHSs0Bau5R2WuIE67x_f-9" style="edgeStyle=orthogonalEdgeStyle;rounded=0;orthogonalLoop=1;jettySize=auto;html=1;entryX=0;entryY=0.5;entryDx=0;entryDy=0;endArrow=none;startFill=0;" edge="1" parent="1" source="eHSs0Bau5R2WuIE67x_f-2" target="eHSs0Bau5R2WuIE67x_f-5">
          <mxGeometry relative="1" as="geometry">
            <Array as="points">
              <mxPoint x="240" y="130" />
              <mxPoint x="240" y="205" />
            </Array>
          </mxGeometry>
        </mxCell>
        <mxCell id="eHSs0Bau5R2WuIE67x_f-16" style="edgeStyle=orthogonalEdgeStyle;rounded=0;orthogonalLoop=1;jettySize=auto;html=1;entryX=0;entryY=0.5;entryDx=0;entryDy=0;endArrow=none;startFill=0;" edge="1" parent="1" source="eHSs0Bau5R2WuIE67x_f-2" target="eHSs0Bau5R2WuIE67x_f-6">
          <mxGeometry relative="1" as="geometry">
            <Array as="points">
              <mxPoint x="210" y="140" />
              <mxPoint x="210" y="335" />
            </Array>
          </mxGeometry>
        </mxCell>
        <mxCell id="eHSs0Bau5R2WuIE67x_f-18" style="edgeStyle=orthogonalEdgeStyle;rounded=0;orthogonalLoop=1;jettySize=auto;html=1;entryX=0;entryY=0.5;entryDx=0;entryDy=0;endArrow=none;startFill=0;" edge="1" parent="1" source="eHSs0Bau5R2WuIE67x_f-2" target="eHSs0Bau5R2WuIE67x_f-17">
          <mxGeometry relative="1" as="geometry">
            <Array as="points">
              <mxPoint x="190" y="160" />
              <mxPoint x="190" y="455" />
            </Array>
          </mxGeometry>
        </mxCell>
        <mxCell id="eHSs0Bau5R2WuIE67x_f-2" value="ER admin" style="shape=umlActor;verticalLabelPosition=bottom;verticalAlign=top;html=1;outlineConnect=0;" vertex="1" parent="1">
          <mxGeometry x="60" y="110" width="30" height="60" as="geometry" />
        </mxCell>
        <mxCell id="eHSs0Bau5R2WuIE67x_f-3" value="receive reporting subsystem" style="text;html=1;align=center;verticalAlign=middle;whiteSpace=wrap;rounded=0;" vertex="1" parent="1">
          <mxGeometry x="420" y="10" width="60" height="30" as="geometry" />
        </mxCell>
        <mxCell id="eHSs0Bau5R2WuIE67x_f-4" value="receive report" style="ellipse;whiteSpace=wrap;html=1;" vertex="1" parent="1">
          <mxGeometry x="390" y="70" width="140" height="70" as="geometry" />
        </mxCell>
        <mxCell id="eHSs0Bau5R2WuIE67x_f-11" value="" style="edgeStyle=orthogonalEdgeStyle;rounded=0;orthogonalLoop=1;jettySize=auto;html=1;endArrow=open;endFill=0;dashed=1;" edge="1" parent="1" source="eHSs0Bau5R2WuIE67x_f-5" target="eHSs0Bau5R2WuIE67x_f-4">
          <mxGeometry relative="1" as="geometry" />
        </mxCell>
        <mxCell id="eHSs0Bau5R2WuIE67x_f-12" value="&amp;lt;&amp;lt;include&amp;gt;&amp;gt;" style="edgeLabel;html=1;align=center;verticalAlign=middle;resizable=0;points=[];" vertex="1" connectable="0" parent="eHSs0Bau5R2WuIE67x_f-11">
          <mxGeometry x="-0.1" y="-1" relative="1" as="geometry">
            <mxPoint as="offset" />
          </mxGeometry>
        </mxCell>
        <mxCell id="eHSs0Bau5R2WuIE67x_f-5" value="allocate response team" style="ellipse;whiteSpace=wrap;html=1;" vertex="1" parent="1">
          <mxGeometry x="390" y="180" width="140" height="70" as="geometry" />
        </mxCell>
        <mxCell id="eHSs0Bau5R2WuIE67x_f-13" value="" style="edgeStyle=orthogonalEdgeStyle;rounded=0;orthogonalLoop=1;jettySize=auto;html=1;endArrow=open;endFill=0;dashed=1;" edge="1" parent="1" source="eHSs0Bau5R2WuIE67x_f-6" target="eHSs0Bau5R2WuIE67x_f-5">
          <mxGeometry relative="1" as="geometry" />
        </mxCell>
        <mxCell id="eHSs0Bau5R2WuIE67x_f-15" value="&amp;lt;&amp;lt;extend&amp;gt;&amp;gt;" style="edgeLabel;html=1;align=center;verticalAlign=middle;resizable=0;points=[];" vertex="1" connectable="0" parent="eHSs0Bau5R2WuIE67x_f-13">
          <mxGeometry x="0.04" relative="1" as="geometry">
            <mxPoint as="offset" />
          </mxGeometry>
        </mxCell>
        <mxCell id="eHSs0Bau5R2WuIE67x_f-6" value="communicate with user and provide updates" style="ellipse;whiteSpace=wrap;html=1;" vertex="1" parent="1">
          <mxGeometry x="390" y="300" width="140" height="70" as="geometry" />
        </mxCell>
        <mxCell id="eHSs0Bau5R2WuIE67x_f-17" value="communicate with response team" style="ellipse;whiteSpace=wrap;html=1;" vertex="1" parent="1">
          <mxGeometry x="390" y="420" width="140" height="70" as="geometry" />
        </mxCell>
      </root>
    </mxGraphModel>
  </diagram>
</mxfile>
